<svg width="63" height="61" viewBox="0 0 63 61" xmlns="http://www.w3.org/2000/svg">
<path fill-rule="evenodd" d="M30.2498 49.714C19.5173 49.714 10.786 40.982 10.786 30.2495C10.786 19.517 19.5173 10.7857 30.2498 10.7857C40.9823 10.7857 49.7143 19.517 49.7143 30.2495C49.7143 40.982 40.9823 49.714 30.2498 49.714ZM30.2508 60.3462C28.3483 60.3462 26.9945 58.616 25.8003 57.0887C25.1028 56.199 24.2355 55.0882 23.6368 54.9292C23.5573 54.908 23.4593 54.8957 23.347 54.8957C22.6288 54.8957 21.572 55.3202 20.55 55.7295C19.3178 56.2227 18.0428 56.7347 16.8565 56.7347C16.235 56.7347 15.677 56.594 15.1983 56.3155C13.5855 55.3822 13.2938 53.3257 13.0128 51.3357C12.8513 50.193 12.6503 48.7705 12.1898 48.3117C11.7298 47.8505 10.3088 47.6502 9.1665 47.4872C7.1765 47.2075 5.1185 46.9157 4.18475 45.3025C3.26425 43.713 4.03125 41.8012 4.77225 39.9515C5.2295 38.8107 5.74825 37.5177 5.5725 36.8635C5.413 36.2655 4.30425 35.3982 3.4125 34.7015C1.88475 33.5062 0.154503 32.153 0.154503 30.25C0.154503 28.3475 1.88475 26.9937 3.41125 25.7995C4.303 25.102 5.41175 24.2347 5.57125 23.6367C5.74675 22.9832 5.2275 21.6895 4.771 20.5495C4.03075 18.6997 3.26375 16.788 4.18425 15.1972C5.1175 13.5845 7.17475 13.2927 9.16525 13.0117C10.3075 12.8502 11.7285 12.6492 12.1893 12.1887C12.6493 11.7287 12.8508 10.3077 13.0118 9.16549C13.2935 7.17549 13.5845 5.11749 15.198 4.18449C15.6765 3.90674 16.2348 3.76599 16.8563 3.76599C18.0425 3.76599 19.3175 4.27724 20.549 4.77124C21.5703 5.18099 22.627 5.60499 23.346 5.60499C23.4575 5.60499 23.555 5.59374 23.6363 5.57224C24.2343 5.41199 25.1015 4.30249 25.7998 3.41149C26.9953 1.88424 28.3483 0.153992 30.2508 0.153992C32.1538 0.153992 33.507 1.88424 34.7018 3.41074C35.3973 4.30199 36.2665 5.41124 36.8653 5.57149C36.946 5.59274 37.0428 5.60424 37.1555 5.60424C37.8745 5.60424 38.929 5.18024 39.9518 4.77124C41.1848 4.27724 42.459 3.76599 43.6465 3.76599C44.266 3.76599 44.8253 3.90674 45.3033 4.18374C46.9153 5.11699 47.2078 7.17424 47.488 9.16549C47.6495 10.3077 47.8513 11.7287 48.311 12.1887C48.771 12.6487 50.192 12.8502 51.335 13.0117C53.325 13.2935 55.3823 13.5845 56.3148 15.198C57.2365 16.788 56.4695 18.6997 55.7288 20.549C55.2728 21.6897 54.7543 22.9827 54.9285 23.6357C55.0888 24.2345 56.1983 25.1017 57.0893 25.8C58.6153 26.9935 60.3455 28.3472 60.3455 30.2497C60.3455 32.1527 58.6153 33.506 57.088 34.7007C56.1983 35.3977 55.0875 36.2667 54.9285 36.8642C54.753 37.5177 55.2723 38.81 55.7288 39.951C56.4698 41.8007 57.2368 43.7125 56.3148 45.3032C55.3815 46.9152 53.325 47.2077 51.3338 47.488C50.1923 47.6495 48.7698 47.8512 48.3113 48.311C47.85 48.771 47.6498 50.192 47.4868 51.335C47.207 53.325 46.914 55.3822 45.3005 56.3147C44.8233 56.593 44.2638 56.734 43.6438 56.734C42.4575 56.734 41.184 56.222 39.9518 55.7287C38.929 55.3195 37.873 54.895 37.1543 54.895C37.0428 54.895 36.9453 54.907 36.864 54.9285C36.266 55.0872 35.3988 56.1967 34.702 57.088C33.5068 58.616 32.1538 60.3462 30.2508 60.3462ZM36.5 21.25V21.5V21.25L36.75 21V20.75V20.5H37V20.25V20H37.25V19.75L37.5 19.5V19.25L37.75 19V18.75L38 18.5L38.25 18.25L38.5 18L38.75 17.75V17.5L39 17.25H39.25L39.5 17V16.75L39.75 16.5L40 16.25L40.25 16H40.5L40.75 15.75L41 15.5H41.25L41.75 15.25H42L42.75 15H43H43.5H44.25H44.75H45.5H46.25H47.25L48.25 15.25H49.5L51 15.75L52.5 16L53.75 16.5L55.5 16.75L56.5 17.25L58 18L59.5 18.5L60.5 19.25L61.25 20L61.75 20.5L62.25 21.5L62.5 22.25V23.25V24.5L62.25 25.5L62 26.75L61.25 27.75L60.5 28.75L59.75 29.75L58.5 30.75L57 32L55.5 32.75L53.75 33.5L52 34.25L49.75 34.5H48.25H47H45.75L44.5 34.25L43.75 34L43 33.75L42.5 33.5L42 33L41.25 32.75L40.75 32.25L40 31.75L39.25 31L38.5 30.5L37.5 29.75L37 29.25L36.25 28.5L36 28L35.75 27.75L35.5 27.25V25V24.75L35.75 24.5V24.25V24L36 23.5V23.25V23L36.25 22.75V22.5V22L36.5 21.75V21.5V21.25Z" fill="#222222"/>
</svg>
